<svg xmlns="http://www.w3.org/2000/svg" width="23.998" height="16.614" viewBox="0 0 23.998 16.614">
  <g id="Icon_ionic-ios-mail" data-name="Icon ionic-ios-mail" transform="translate(-3.375 -7.875)">
    <path id="Tracé_24" data-name="Tracé 24" d="M27.177,10.349,20.97,16.672a.112.112,0,0,0,0,.162l4.344,4.627a.749.749,0,0,1,0,1.061.752.752,0,0,1-1.061,0l-4.327-4.609a.118.118,0,0,0-.167,0L18.7,18.985a4.645,4.645,0,0,1-3.311,1.4,4.738,4.738,0,0,1-3.38-1.436L11,17.912a.118.118,0,0,0-.167,0L6.5,22.521a.752.752,0,0,1-1.061,0,.749.749,0,0,1,0-1.061l4.344-4.627a.123.123,0,0,0,0-.162L3.571,10.349a.114.114,0,0,0-.2.081V23.081a1.851,1.851,0,0,0,1.846,1.846H25.527a1.851,1.851,0,0,0,1.846-1.846V10.43A.115.115,0,0,0,27.177,10.349Z" transform="translate(0 -0.438)"/>
    <path id="Tracé_25" data-name="Tracé 25" d="M15.527,18.438a3.136,3.136,0,0,0,2.256-.946l9.051-9.213a1.813,1.813,0,0,0-1.142-.4H5.368a1.8,1.8,0,0,0-1.142.4l9.051,9.213A3.137,3.137,0,0,0,15.527,18.438Z" transform="translate(-0.153)"/>
  </g>
</svg>
