<svg xmlns="http://www.w3.org/2000/svg" width="24" height="24" viewBox="0 0 24 24">
  <g id="Icon_ionic-logo-instagram" data-name="Icon ionic-logo-instagram" transform="translate(-4.5 -4.5)">
    <path id="Tracé_21" data-name="Tracé 21" d="M21.5,6.5a5.015,5.015,0,0,1,5,5v10a5.015,5.015,0,0,1-5,5h-10a5.015,5.015,0,0,1-5-5v-10a5.015,5.015,0,0,1,5-5h10m0-2h-10a7.021,7.021,0,0,0-7,7v10a7.021,7.021,0,0,0,7,7h10a7.021,7.021,0,0,0,7-7v-10a7.021,7.021,0,0,0-7-7Z"/>
    <path id="Tracé_22" data-name="Tracé 22" d="M25.313,12.375A1.688,1.688,0,1,1,27,10.688,1.683,1.683,0,0,1,25.313,12.375Z" transform="translate(-2.429 -0.571)"/>
    <path id="Tracé_23" data-name="Tracé 23" d="M18,13.5A4.5,4.5,0,1,1,13.5,18,4.5,4.5,0,0,1,18,13.5m0-2.25A6.75,6.75,0,1,0,24.75,18,6.752,6.752,0,0,0,18,11.25Z" transform="translate(-1.5 -1.5)"/>
  </g>
</svg>
